<?xml version="1.0" encoding="UTF-8"?>
<!-- Generated by Pixelmator Pro 3.6.13 -->
<svg width="250" height="250" viewBox="0 0 250 250" xmlns="http://www.w3.org/2000/svg">
    <path id="Path" fill="#f5f5f4" fill-rule="evenodd" stroke="none" d="M 125 245 C 191.274002 245 245 191.274002 245 125 C 245 58.7258 191.274002 5 125 5 C 58.7258 5 5 58.7258 5 125 C 5 191.274002 58.7258 245 125 245 Z M 72 205 L 74.637398 188.647995 L 86.065903 188.647995 C 95.560402 188.647995 101.07 184.018005 102.593002 174.757996 L 114.197998 104.076996 L 85.186798 104.076996 L 87.824203 86.846191 L 117.011002 86.846191 L 119.121002 73.659302 C 120.527 64.868103 124.396004 57.893799 130.725006 52.736298 C 137.171997 47.578796 145.201004 45 154.813004 45 L 177.494995 45 L 174.856995 61.879105 L 152.352005 61.879105 C 144.029007 61.879105 139.223007 65.864502 137.934006 73.835205 L 136 86.846191 L 172.570999 86.846191 L 169.757996 104.076996 L 133.186996 104.076996 L 121.582001 175.110001 C 120.058998 184.369995 115.897003 191.636993 109.098999 196.912003 C 102.417999 202.304001 93.919403 205 83.604401 205 Z M 195 187 C 195 196.940994 186.940994 205 177 205 C 167.059006 205 159 196.940994 159 187 C 159 177.059006 167.059006 169 177 169 C 186.940994 169 195 177.059006 195 187 Z"/>
</svg>
